<mxfile host="app.diagrams.net" modified="2023-10-18T13:23:40.608Z" agent="Mozilla/5.0 (Windows NT 10.0; Win64; x64; rv:109.0) Gecko/20100101 Firefox/118.0" version="21.6.5" etag="C0D2OwimUaWwZbjJSxSt" type="github">
  <diagram name="Page-1" id="tuaevyIxSfJ9-T7ik7n0">
    <mxGraphModel>
      <root>
        <mxCell id="0" />
        <mxCell id="1" parent="0" />
      </root>
    </mxGraphModel>
  </diagram>
</mxfile>
